<?xml version="1.0" encoding="UTF-8" standalone="no"?>
<!-- Created with Inkscape (http://www.inkscape.org/) -->

<svg
   width="1200"
   height="600"
   viewBox="0 0 317.5 158.75001"
   version="1.1"
   id="svg5"
   inkscape:version="1.1.1 (3bf5ae0d25, 2021-09-20)"
   sodipodi:docname="integration-api-banner.svg"
   inkscape:export-filename="C:\Users\Zeeba\Desktop\integration-api-banner-ting-review.png"
   inkscape:export-xdpi="96"
   inkscape:export-ydpi="96"
   xmlns:inkscape="http://www.inkscape.org/namespaces/inkscape"
   xmlns:sodipodi="http://sodipodi.sourceforge.net/DTD/sodipodi-0.dtd"
   xmlns="http://www.w3.org/2000/svg"
   xmlns:svg="http://www.w3.org/2000/svg">
  <sodipodi:namedview
     id="namedview7"
     pagecolor="#ffffff"
     bordercolor="#666666"
     borderopacity="1.0"
     inkscape:pageshadow="2"
     inkscape:pageopacity="0.0"
     inkscape:pagecheckerboard="true"
     inkscape:document-units="mm"
     showgrid="false"
     units="px"
     inkscape:zoom="0.76435185"
     inkscape:cx="560.60569"
     inkscape:cy="291.09631"
     inkscape:window-width="1920"
     inkscape:window-height="1017"
     inkscape:window-x="-8"
     inkscape:window-y="-8"
     inkscape:window-maximized="1"
     inkscape:current-layer="layer5"
     showguides="false" />
  <defs
     id="defs2">
    <inkscape:path-effect
       effect="bend_path"
       id="path-effect39863"
       is_visible="true"
       lpeversion="1"
       bendpath="M 69.084607,-1.0384614 55.308452,-46.34252 171.34616,-26.653846"
       prop_scale="1.08"
       scale_y_rel="true"
       vertical="false"
       hide_knot="false"
       bendpath-nodetypes="ccc" />
    <marker
       style="overflow:visible;"
       id="Arrow1Lend"
       refX="0.0"
       refY="0.0"
       orient="auto"
       inkscape:stockid="Arrow1Lend"
       inkscape:isstock="true">
      <path
         transform="scale(0.8) rotate(180) translate(12.5,0)"
         style="fill-rule:evenodd;fill:context-stroke;stroke:context-stroke;stroke-width:1.0pt;"
         d="M 0.0,0.0 L 5.0,-5.0 L -12.5,0.0 L 5.0,5.0 L 0.0,0.0 z "
         id="path38433" />
    </marker>
    <inkscape:path-effect
       effect="fillet_chamfer"
       id="path-effect2019"
       is_visible="true"
       lpeversion="1"
       satellites_param="F,0,0,1,0,1.5875,0,1 @ F,0,0,1,0,1.5875,0,1 @ F,0,0,1,0,1.5875,0,1 @ F,0,0,1,0,1.5875,0,1"
       unit="px"
       method="auto"
       mode="F"
       radius="6"
       chamfer_steps="1"
       flexible="false"
       use_knot_distance="true"
       apply_no_radius="true"
       apply_with_radius="true"
       only_selected="false"
       hide_knots="false" />
    <inkscape:path-effect
       effect="fillet_chamfer"
       id="path-effect1262"
       is_visible="true"
       lpeversion="1"
       satellites_param="F,0,0,1,0,2.9104167,0,1 @ F,0,0,1,0,2.9104167,0,1 @ F,0,0,1,0,2.9104167,0,1 @ F,0,0,1,0,2.9104167,0,1"
       unit="px"
       method="auto"
       mode="F"
       radius="11"
       chamfer_steps="1"
       flexible="false"
       use_knot_distance="true"
       apply_no_radius="true"
       apply_with_radius="true"
       only_selected="false"
       hide_knots="false" />
  </defs>
  <g
     inkscape:groupmode="layer"
     id="layer2"
     inkscape:label="back"
     style="display:inline">
    <rect
       style="fill:#0000dc;fill-opacity:0;stroke:none;stroke-width:6.0017;stroke-linecap:square"
       id="rect3806"
       width="317.58975"
       height="158.79489"
       x="3.5762787e-07"
       y="9.1393787e-08" />
  </g>
  <g
     inkscape:label="text"
     inkscape:groupmode="layer"
     id="layer1"
     style="display:inline">
    <text
       xml:space="preserve"
       style="font-style:normal;font-variant:normal;font-weight:bold;font-stretch:normal;font-size:37.3829px;line-height:1.25;font-family:'Comic Sans MS';-inkscape-font-specification:'Comic Sans MS, Bold';font-variant-ligatures:normal;font-variant-caps:normal;font-variant-numeric:normal;font-variant-east-asian:normal;fill:#000000;fill-opacity:1;stroke:none;stroke-width:0.934575"
       x="17.404278"
       y="93.516243"
       id="text2502"><tspan
         sodipodi:role="line"
         id="tspan2500"
         style="font-style:normal;font-variant:normal;font-weight:bold;font-stretch:normal;font-size:37.3829px;font-family:'Comic Sans MS';-inkscape-font-specification:'Comic Sans MS, Bold';font-variant-ligatures:normal;font-variant-caps:normal;font-variant-numeric:normal;font-variant-east-asian:normal;fill:#000000;fill-opacity:1;stroke-width:0.934575"
         x="17.404278"
         y="93.516243">INTEGRATION</tspan></text>
    <g
       id="g37473"
       transform="translate(-29.861663,1.4686064)">
      <rect
         style="fill:none;fill-opacity:1;stroke:#000000;stroke-width:3;stroke-linecap:square;stroke-miterlimit:4;stroke-dasharray:6, 6;stroke-dashoffset:3;stroke-opacity:0.986989"
         id="rect25690"
         width="44.361668"
         height="44.361668"
         x="-119.66836"
         y="106.07745"
         transform="scale(-1,1)" />
      <text
         xml:space="preserve"
         style="font-style:normal;font-variant:normal;font-weight:bold;font-stretch:normal;font-size:47.3163px;line-height:1.25;font-family:sans-serif;-inkscape-font-specification:'sans-serif, Bold';font-variant-ligatures:normal;font-variant-caps:normal;font-variant-numeric:normal;font-variant-east-asian:normal;display:inline;fill:#000000;fill-opacity:1;stroke:none;stroke-width:1.18291"
         x="80.458389"
         y="145.71405"
         id="text2572-0"><tspan
           sodipodi:role="line"
           id="tspan867-9"
           x="80.458389"
           y="145.71405"
           style="stroke-width:1.18291"><tspan
             style="font-style:normal;font-variant:normal;font-weight:normal;font-stretch:normal;font-size:47.3163px;font-family:'Coinage Caps Kruger Gray';-inkscape-font-specification:'Coinage Caps Kruger Gray, @wght=700';font-variant-ligatures:normal;font-variant-caps:normal;font-variant-numeric:normal;font-variant-east-asian:normal;font-variation-settings:'wght' 700"
             id="tspan7018-1">A</tspan></tspan></text>
    </g>
    <g
       id="g37479"
       transform="translate(-8.272947,-4.5872331)">
      <rect
         style="display:inline;fill:none;fill-opacity:1;stroke:#000000;stroke-width:3;stroke-linecap:square;stroke-miterlimit:4;stroke-dasharray:6, 6;stroke-dashoffset:3;stroke-opacity:0.986989"
         id="rect25690-9"
         width="44.361668"
         height="44.361668"
         x="-189.24866"
         y="112.13329"
         transform="scale(-1,1)" />
      <text
         xml:space="preserve"
         style="font-style:normal;font-variant:normal;font-weight:bold;font-stretch:normal;font-size:47.3163px;line-height:1.25;font-family:sans-serif;-inkscape-font-specification:'sans-serif, Bold';font-variant-ligatures:normal;font-variant-caps:normal;font-variant-numeric:normal;font-variant-east-asian:normal;display:inline;fill:#000000;fill-opacity:1;stroke:none;stroke-width:1.18291"
         x="152.4201"
         y="151.09894"
         id="text2572-0-7"><tspan
           sodipodi:role="line"
           id="tspan867-9-1"
           x="152.4201"
           y="151.09894"
           style="stroke-width:1.18291"><tspan
             style="font-style:normal;font-variant:normal;font-weight:normal;font-stretch:normal;font-size:47.3163px;font-family:'Javanese Text';-inkscape-font-specification:'Javanese Text, Normal';font-variant-ligatures:normal;font-variant-caps:normal;font-variant-numeric:normal;font-variant-east-asian:normal"
             id="tspan8210-3-5">P</tspan></tspan></text>
    </g>
    <text
       xml:space="preserve"
       style="font-style:normal;font-weight:normal;font-size:10.5833px;line-height:1.25;font-family:sans-serif;fill:#000000;fill-opacity:1;stroke:none;stroke-width:0.264583"
       x="126.78968"
       y="286.37827"
       id="text24528"><tspan
         sodipodi:role="line"
         id="tspan24526"
         style="stroke-width:0.264583"
         x="126.78968"
         y="286.37827" /></text>
    <g
       id="g37485"
       transform="translate(21.634771,1.5746016)">
      <rect
         style="display:inline;fill:none;fill-opacity:1;stroke:#000000;stroke-width:3;stroke-linecap:square;stroke-miterlimit:4;stroke-dasharray:6, 6;stroke-dashoffset:3;stroke-opacity:0.986989"
         id="rect25690-9-6"
         width="44.361668"
         height="44.361668"
         x="-250.26929"
         y="105.97146"
         transform="scale(-1,1)" />
      <text
         xml:space="preserve"
         style="font-style:normal;font-variant:normal;font-weight:bold;font-stretch:normal;font-size:47.3163px;line-height:1.25;font-family:sans-serif;-inkscape-font-specification:'sans-serif, Bold';font-variant-ligatures:normal;font-variant-caps:normal;font-variant-numeric:normal;font-variant-east-asian:normal;display:inline;fill:#000000;fill-opacity:1;stroke:#000000;stroke-width:1.183;stroke-miterlimit:4;stroke-dasharray:none;stroke-opacity:1"
         x="217.52832"
         y="143.75592"
         id="text2572-0-4"><tspan
           sodipodi:role="line"
           id="tspan867-9-3"
           x="217.52832"
           y="143.75592"
           style="stroke:#000000;stroke-width:1.183;stroke-miterlimit:4;stroke-dasharray:none;stroke-opacity:1"><tspan
             style="font-style:normal;font-variant:normal;font-weight:bold;font-stretch:normal;font-size:47.3163px;font-family:'Sitka Small';-inkscape-font-specification:'Sitka Small, Bold';font-variant-ligatures:normal;font-variant-caps:normal;font-variant-numeric:normal;font-variant-east-asian:normal;stroke:#000000;stroke-width:1.183;stroke-miterlimit:4;stroke-dasharray:none;stroke-opacity:1"
             id="tspan9744-9">I</tspan></tspan></text>
    </g>
  </g>
  <g
     inkscape:groupmode="layer"
     id="layer6"
     inkscape:label="api-boxes" />
  <g
     inkscape:groupmode="layer"
     id="layer4"
     inkscape:label="crown"
     style="display:inline" />
  <g
     inkscape:groupmode="layer"
     id="layer3"
     inkscape:label="cuffs"
     style="display:none" />
  <g
     inkscape:groupmode="layer"
     id="layer5"
     inkscape:label="hmpps">
    <text
       xml:space="preserve"
       style="font-style:normal;font-variant:normal;font-weight:bold;font-stretch:normal;font-size:55.5255px;line-height:1.25;font-family:sans-serif;-inkscape-font-specification:'sans-serif, Bold';font-variant-ligatures:normal;font-variant-caps:normal;font-variant-numeric:normal;font-variant-east-asian:normal;fill:#000000;fill-opacity:1;stroke:none;stroke-width:1.38816"
       x="9.2718601"
       y="55.975819"
       id="text2036"><tspan
         sodipodi:role="line"
         id="tspan847"
         x="9.2718601"
         y="55.975819"
         style="stroke-width:1.38816">H     P    S</tspan></text>
    <text
       xml:space="preserve"
       style="font-style:normal;font-variant:normal;font-weight:bold;font-stretch:normal;font-size:46.9555px;line-height:1.25;font-family:sans-serif;-inkscape-font-specification:'sans-serif, Bold';font-variant-ligatures:normal;font-variant-caps:normal;font-variant-numeric:normal;font-variant-east-asian:normal;fill:#000000;fill-opacity:1;stroke:none;stroke-width:1.17391"
       x="76.875893"
       y="56.610573"
       id="text2036-4"><tspan
         sodipodi:role="line"
         id="tspan847-08"
         x="76.875893"
         y="56.610573"
         style="stroke-width:1.17391">M</tspan></text>
    <text
       xml:space="preserve"
       style="font-style:normal;font-variant:normal;font-weight:bold;font-stretch:normal;font-size:55.5255px;line-height:1.25;font-family:sans-serif;-inkscape-font-specification:'sans-serif, Bold';font-variant-ligatures:normal;font-variant-caps:normal;font-variant-numeric:normal;font-variant-east-asian:normal;fill:#000000;fill-opacity:1;stroke:none;stroke-width:1.38816"
       x="-250.06485"
       y="56.054745"
       id="text2036-1"
       transform="scale(-1,1)"><tspan
         sodipodi:role="line"
         id="tspan847-0"
         x="-250.06485"
         y="56.054745"
         style="stroke-width:1.38816">P </tspan></text>
    <path
       id="rect1059"
       d="m 183.77182,45.529477 14.90605,6.174298 a 4.7710024,4.3630584 22.5 0 1 2.73819,5.856724 4.7523927,4.3460401 22.5 0 1 -6.06449,2.173652 l -14.90603,-6.174298 a 4.7710024,4.3630584 22.5 0 1 -2.73819,-5.856724 4.7523927,4.3460401 22.5 0 1 6.06447,-2.173652 z"
       style="fill:#0000ff;fill-opacity:0;stroke:#000000;stroke-width:4.70291;stroke-linecap:square;stroke-miterlimit:4;stroke-dasharray:none;stroke-opacity:0.986989" />
    <path
       id="rect1059-1"
       d="m 216.02376,45.10141 -14.90604,6.174298 a 4.3630584,4.7710024 67.5 0 0 -2.7382,5.856724 4.3460401,4.7523927 67.5 0 0 6.06449,2.173652 l 14.90604,-6.174298 a 4.3630584,4.7710024 67.5 0 0 2.73819,-5.856724 4.3460401,4.7523927 67.5 0 0 -6.06448,-2.173652 z"
       style="fill:#0000ff;fill-opacity:0;stroke:#000000;stroke-width:4.70291;stroke-linecap:square;stroke-miterlimit:4;stroke-dasharray:none;stroke-opacity:0.986989" />
    <path
       id="rect2017"
       d="m 177.2936,38.2107 3.32722,4.336112 a 1.5875,1.5875 0 0 1 -0.29304,2.225858 l -3.44359,2.642356 a 1.5875,1.5875 0 0 1 -2.22586,-0.29304 l -3.32722,-4.336112 a 1.5875,1.5875 0 0 1 0.29304,-2.225858 l 3.44359,-2.642356 a 1.5875,1.5875 0 0 1 2.22586,0.29304 z"
       style="fill:#000000;fill-opacity:1;stroke:none;stroke-width:3;stroke-linecap:square;stroke-miterlimit:4;stroke-dasharray:none;stroke-opacity:0.986989" />
    <path
       id="rect2017-9"
       d="m 221.86902,39.172995 -3.32722,4.336112 a 1.5875,1.5875 0 0 0 0.29304,2.225858 l 3.44359,2.642356 a 1.5875,1.5875 0 0 0 2.22586,-0.29304 l 3.32722,-4.336112 a 1.5875,1.5875 0 0 0 -0.29304,-2.225858 l -3.44359,-2.642356 a 1.5875,1.5875 0 0 0 -2.22586,0.29304 z"
       style="fill:#000000;fill-opacity:1;stroke:none;stroke-width:3;stroke-linecap:square;stroke-miterlimit:4;stroke-dasharray:none;stroke-opacity:0.986989" />
    <path
       style="fill:#000000;stroke-width:0.0593852"
       d="m 80.099401,26.022326 c -1.305986,-2.619332 -2.178683,-4.229133 -3.325707,-6.134701 -1.645214,-2.733227 -2.800094,-4.288693 -4.239411,-5.70995 -0.468064,-0.462192 -0.851022,-0.870297 -0.851022,-0.906901 0,-0.154405 0.288516,-0.205377 0.75342,-0.133102 1.126997,0.175211 2.619021,0.847474 3.278771,1.477318 0.212565,0.202938 0.389167,0.363278 0.392428,0.356313 0.0034,-0.007 0.05536,-0.126481 0.11596,-0.26559 0.136917,-0.314786 0.59912,-0.754037 0.969358,-0.921207 0.428728,-0.193576 1.070155,-0.180415 1.501897,0.03082 0.71118,0.347947 1.092412,0.946495 1.087526,1.707479 -0.0034,0.548127 -0.14047,0.88633 -0.52568,1.298144 -0.320568,0.342714 -0.739221,0.54283 -1.228444,0.587191 l -0.341862,0.031 0.362517,0.443653 c 1.160809,1.420597 2.342272,2.399575 3.401545,2.818576 0.430431,0.170259 0.540059,0.188855 1.132757,0.192159 0.641529,0.0036 0.66624,-0.0013 1.105727,-0.218457 1.222246,-0.603914 2.125673,-2.264534 2.451721,-4.506648 0.133342,-0.916985 0.148449,-0.860695 -0.241771,-0.900969 -0.42197,-0.04355 -0.909254,-0.280002 -1.155867,-0.560869 -0.861971,-0.981734 -0.57823,-2.411811 0.598639,-3.017186 0.13035,-0.06705 0.38827,-0.116753 0.691713,-0.133296 0.423718,-0.0231 0.524268,-0.0079 0.808839,0.122395 0.441212,0.201997 0.759326,0.504074 0.965021,0.916356 0.146701,0.29407 0.171928,0.414451 0.171782,0.819769 -1.12e-4,0.395856 -0.02723,0.531151 -0.16257,0.811286 -0.149077,0.308635 -0.465946,0.662567 -0.720908,0.805255 -0.09089,0.05085 -0.06847,0.09146 0.184861,0.336535 0.158525,0.153287 0.582176,0.499956 0.941464,0.770377 1.483753,1.116781 2.8099,1.667836 4.18667,1.739688 0.820461,0.04282 1.339988,-0.06633 2.075768,-0.436109 0.989865,-0.497478 1.824885,-1.478573 2.449185,-2.877678 0.31993,-0.716979 0.44148,-1.114545 0.38544,-1.260623 -0.0343,-0.08914 -0.0632,-0.08343 -0.26935,0.05299 -1.3007,0.860759 -3.064249,0.371274 -3.729603,-1.035175 -0.544295,-1.150549 -0.165058,-2.4793345 0.920831,-3.2264446 0.38288,-0.2634281 0.882167,-0.4012261 1.454052,-0.401296 l 0.48464,-5.87e-5 V 7.4314825 c 0,-1.4567759 0.0802,-2.0165212 0.45234,-3.15667 0.39144,-1.1993587 1.0145,-2.2221143 1.91626,-3.145553 l 0.46824,-0.47951956 0.497936,0.52201646 c 1.132156,1.1868978 1.796506,2.4784187 2.168716,4.2160745 0.11028,0.5146984 0.12995,0.8026082 0.1337,1.9544887 l 0.004,1.3508729 0.47916,1.186e-4 c 0.8239,2.377e-4 1.40473,0.248716 1.95394,0.8358774 1.32221,1.4135405 0.58426,3.7639715 -1.31437,4.1863745 -0.70011,0.155763 -1.47135,0.01478 -1.98264,-0.362431 -0.20247,-0.149374 -0.20483,-0.149632 -0.2589,-0.02842 -0.0405,0.09061 -0.003,0.256654 0.14119,0.640572 0.96651,2.558652 2.54286,3.932939 4.51116,3.932939 0.49942,0 1.31056,-0.13772 1.80158,-0.305885 1.14506,-0.392147 2.54117,-1.259866 3.52663,-2.191878 0.28758,-0.27197 0.3163,-0.31888 0.22614,-0.369333 -0.25116,-0.140558 -0.55297,-0.478857 -0.7108,-0.796733 -0.43922,-0.884615 -0.0744,-1.999849 0.81198,-2.482283 0.25459,-0.138569 0.40819,-0.176399 0.79972,-0.196949 0.42342,-0.02223 0.52564,-0.0067 0.80957,0.123338 0.99786,0.456834 1.41602,1.548397 0.96784,2.526439 -0.28482,0.621517 -0.95577,1.080326 -1.57984,1.080326 -0.27967,0 -0.27604,-0.02228 -0.1428,0.875029 0.33878,2.281517 1.22133,3.907204 2.451,4.514779 0.43948,0.21715 0.46419,0.222031 1.10573,0.218456 0.59269,-0.0034 0.70232,-0.0219 1.13275,-0.192158 1.0613,-0.419802 2.20636,-1.368733 3.39569,-2.814049 l 0.36851,-0.447818 -0.36851,-0.03836 c -0.69213,-0.07205 -1.32093,-0.525674 -1.6014,-1.15528 -0.171,-0.383839 -0.171,-1.062275 0,-1.446114 0.1735,-0.38948 0.56346,-0.789774 0.95692,-0.982276 0.44333,-0.216898 1.07436,-0.227667 1.52308,-0.02599 0.36798,0.16539 0.81427,0.595636 0.95584,0.921487 0.0587,0.135123 0.10938,0.251376 0.11269,0.258342 0.003,0.007 0.17987,-0.153375 0.39244,-0.356312 0.4652,-0.444125 1.28941,-0.89277 2.1997,-1.197373 1.05757,-0.353885 1.83248,-0.412935 1.83248,-0.13964 0,0.04056 -0.31801,0.381863 -0.70667,0.758437 -1.04132,1.00893 -1.67645,1.792801 -2.72001,3.357024 -1.37197,2.056475 -2.62006,4.287828 -4.31822,7.720103 -0.69486,1.404464 -1.341,2.733236 -1.43585,2.952827 -0.0948,0.219589 -0.18718,0.399973 -0.20516,0.400852 -0.018,8.76e-4 -0.0941,-0.12534 -0.16928,-0.280485 -0.518,-1.069943 -1.85523,-2.270893 -3.50959,-3.151947 -1.844,-0.982037 -4.43059,-1.799295 -7.24503,-2.289125 -2.37314,-0.413027 -3.98194,-0.539943 -6.859012,-0.541101 -2.93018,-0.0011 -4.822152,0.154236 -7.215316,0.592687 -4.242055,0.777184 -7.656713,2.226699 -9.396895,3.988954 -0.525445,0.532109 -0.758598,0.835757 -1.025887,1.33603 l -0.188548,0.352898 z"
       id="path15657" />
  </g>
</svg>
